<?xml version="1.0" standalone="no"?><!DOCTYPE svg PUBLIC "-//W3C//DTD SVG 1.1//EN" "http://www.w3.org/Graphics/SVG/1.1/DTD/svg11.dtd"><svg t="1676111456480" class="icon" viewBox="0 0 1024 1024" version="1.1" xmlns="http://www.w3.org/2000/svg" p-id="771" xmlns:xlink="http://www.w3.org/1999/xlink" width="200" height="200"><path d="M192 32C103.776 32 32 103.776 32 192v640c0 88.224 71.776 160 160 160h640c88.224 0 160-71.776 160-160V192c0-88.224-71.776-160-160-160H192z m736 160v640c0 52.928-43.072 96-96 96H192c-52.928 0-96-43.072-96-96V192c0-52.928 43.072-96 96-96h640c52.928 0 96 43.072 96 96z" fill="#d4237a" p-id="772"></path><path d="M704 224a32 32 0 0 0-32 32v224H352V256a32 32 0 1 0-64 0v512a32 32 0 1 0 64 0v-224h320v224a32 32 0 1 0 64 0V256a32 32 0 0 0-32-32z" fill="#d4237a" p-id="773"></path></svg>